<?xml version="1.0" encoding="UTF-8"?>
<!DOCTYPE svg PUBLIC "-//W3C//DTD SVG 1.1//EN" "http://www.w3.org/Graphics/SVG/1.1/DTD/svg11.dtd">
<!-- Creator: CorelDRAW -->
<svg xmlns="http://www.w3.org/2000/svg" xml:space="preserve" width="5.33936in" height="5.33936in" version="1.1" style="shape-rendering:geometricPrecision; text-rendering:geometricPrecision; image-rendering:optimizeQuality; fill-rule:evenodd; clip-rule:evenodd"
viewBox="0 0 4775.47 4775.47"
 xmlns:xlink="http://www.w3.org/1999/xlink"
 xmlns:xodm="http://www.corel.com/coreldraw/odm/2003">
 <defs>
  <style type="text/css">
   <![CDATA[
    .str0 {stroke:#373435;stroke-width:6.21;stroke-miterlimit:2.61313}
    .fil1 {fill:black}
    .fil0 {fill:#7D3FBA}
   ]]>
  </style>
 </defs>
 <g id="Layer_x0020_1">
  <metadata id="CorelCorpID_0Corel-Layer"/>
  <circle class="fil0 str0" cx="2387.74" cy="2387.74" r="2384.63"/>
  <path class="fil1" d="M3550.28 3569.39l-1.85 -215 -108.98 -5.27 0.3 216.03 -530.64 5.15 1.86 -220.28 -109.33 1.43 0.3 219.29 -531.44 -0.27 0.32 -215.75 -109.36 -5.87 0.25 217.18 -530.2 4.15 -0.2 -219.59 -109.14 0.37 0.48 218.68 -318.01 -0.58c-15.44,-758.33 -0.35,-1528.59 -0.35,-2283.5 0,-67.9 12.13,-211.89 -13,-267.45 -28.25,-62.4 -128.03,-94.31 -192.9,-40.6 -59.28,49.08 -46.09,143.93 -43.66,236.36 2.48,94.14 1.69,191.97 1.02,286.74 -1.69,231.52 -20.26,2198.22 15.3,2258.42 43.34,73.38 126.17,62.33 227.68,62.2l2007.17 -0.03c99.71,0 498.99,16.37 559.87,-16.88 67.9,-37.07 79.35,-137.5 29.68,-192.62 -53.58,-59.46 -151.87,-39.06 -245.18,-42.33zm-573.58 -2493.19c-129.5,40.85 -85.6,257.22 68.95,217 133.75,-34.8 82.82,-264.87 -68.95,-217zm-1116.49 160.85c-62.22,31.03 -89.26,85.16 -51.01,154.74 23.21,42.23 86.13,76.84 149.99,45.42 127.41,-62.7 44.39,-271.68 -98.97,-200.17zm-74.14 678.11c-145.13,51.08 -77,252.11 66.04,216.93 57.21,-14.05 96.78,-79.16 74.76,-150.03 -15.01,-48.31 -72.54,-90.93 -140.8,-66.9zm511.24 261.04c-145.7,44.72 -90.64,263.62 67.9,217.26 124.44,-36.41 79.47,-262.5 -67.9,-217.26zm775.82 539.12c-138.54,79.03 -22.04,268.7 111.28,198.05 120.69,-63.96 24.13,-275.32 -111.28,-198.05zm290.41 -667.71c-37.96,13.19 -49.94,13.77 -66.65,47.39 -16.14,32.46 -18.19,68.09 -3.77,105.72 20.24,52.82 90.13,83.62 154.05,54.78 117.49,-53.02 61.3,-258.26 -83.64,-207.89zm-1549.95 279.75c-37.92,16.42 -51.22,8.18 -71.42,63.81 -14.53,40.08 -15.2,75.62 3.75,115.29 27.19,56.88 106.44,96.15 176.98,65.87 154.12,-66.15 72.94,-323.91 -109.32,-244.97zm1310.81 -616.53c-183.3,41.97 -129.26,302.53 55.27,266.79 66.11,-12.81 117.81,-83.64 100.98,-165.33 -12.5,-60.64 -84.62,-117.86 -156.25,-101.46zm-418.42 -260.01c-165.31,85.54 -54.84,308.7 111.24,246.99 160.65,-59.69 56.97,-334.04 -111.24,-246.99zm-477 1159.99c-171.17,90.37 -41.33,315.77 119.66,243 149.28,-67.48 48.23,-331.63 -119.66,-243zm-34.55 -1065.73c-269.76,57.87 -183.57,487.3 106.4,412.2 258.33,-66.9 186.87,-475.11 -106.4,-412.2zm660.5 610.1c-273.81,61.35 -194.59,483.59 104.97,414.77 252.68,-58.04 180.2,-478.68 -104.97,-414.77zm-1255.69 515.56c-321.16,70.75 -207.07,538.98 102.14,467.07 116.58,-27.12 211.7,-146.32 179.89,-287.5 -25.8,-114.54 -142.57,-210.28 -282.03,-179.56zm-1.44 147.03c-131.01,78.58 -9.62,239.89 102.57,176.4 108.76,-61.54 22.52,-251.45 -102.57,-176.4zm1871.97 -1776.58c-314.55,64.83 -215.8,542.11 103.3,469.48 114.77,-26.12 210.96,-148.12 177.8,-291.34 -25.58,-110.58 -142.9,-206.6 -281.1,-178.14zm26.97 134.07c-142.62,38.02 -87.52,237.76 49.97,200.23 128.5,-35.05 72.18,-232.79 -49.97,-200.23z"/>
 </g>
</svg>
